<svg height="2526" width="720" xmlns="http://www.w3.org/2000/svg">
<rect height="2526" fill="#555" width="720"></rect>
<text fill="#7f7" font-family="Courier New" font-size="12" xml:space="preserve">
<tspan x="10" y="26"></tspan>
<tspan x="10" y="42">&gt; npmdoc-node-red@0.0.2 test /home/travis/build/npmdoc/node-npmdoc-node-red</tspan>
<tspan x="10" y="58">&gt; (set -e; export PORT=$(utility2 shServerPortRandom); utility2 test test.js)</tspan>
<tspan x="10" y="74"></tspan>
<tspan x="10" y="90"></tspan>
<tspan x="10" y="106">[MODE_BUILD=npmTest] - 2017-04-04T08:48:38Z - npm-testing /home/travis/build/npmdoc/node-npmdoc-\</tspan>
<tspan x="10" y="122">node-red</tspan>
<tspan x="10" y="138"></tspan>
<tspan x="10" y="154"></tspan>
<tspan x="10" y="170">covering $ /home/travis/.nvm/versions/node/v6.10.1/bin/node /home/travis/build/npmdoc/node-npmdo\</tspan>
<tspan x="10" y="186">c-node-red/test.js</tspan>
<tspan x="10" y="202">merging file:///home/travis/build/npmdoc/node-npmdoc-node-red/tmp/build/test-report.json to test\</tspan>
<tspan x="10" y="218">-report</tspan>
<tspan x="10" y="234">&gt; server listening on http-port 43887</tspan>
<tspan x="10" y="250">Deprecated use of RED.app - use RED.httpAdmin instead</tspan>
<tspan x="10" y="266">Deprecated use of RED.app - use RED.httpAdmin instead</tspan>
<tspan x="10" y="282">Deprecated use of RED.app - use RED.httpAdmin instead</tspan>
<tspan x="10" y="298">Deprecated use of RED.app - use RED.httpAdmin instead</tspan>
<tspan x="10" y="314">Deprecated use of RED.app - use RED.httpAdmin instead</tspan>
<tspan x="10" y="330">created apidoc file:///home/travis/build/npmdoc/node-npmdoc-node-red/tmp/build/apidoc.html</tspan>
<tspan x="10" y="346"></tspan>
<tspan x="10" y="362"></tspan>
<tspan x="10" y="378">browserTest - created electron entry-page /home/travis/build/npmdoc/node-npmdoc-node-red/tmp/ele\</tspan>
<tspan x="10" y="394">ctron.15b3826ced90.f83bf1ef02e63.html</tspan>
<tspan x="10" y="410"></tspan>
<tspan x="10" y="426">Deprecated use of RED.app - use RED.httpAdmin instead</tspan>
<tspan x="10" y="442">Deprecated use of RED.app - use RED.httpAdmin instead</tspan>
<tspan x="10" y="458">Deprecated use of RED.app - use RED.httpAdmin instead</tspan>
<tspan x="10" y="474">Deprecated use of RED.app - use RED.httpAdmin instead</tspan>
<tspan x="10" y="490">Deprecated use of RED.app - use RED.httpAdmin instead</tspan>
<tspan x="10" y="506">Xlib:  extension "RANDR" missing on display ":99.0".</tspan>
<tspan x="10" y="522">[node test-case 1 of 6 passed] - testCase_buildLib_default</tspan>
<tspan x="10" y="538">[node test-case 2 of 6 passed] - testCase_buildReadme_default</tspan>
<tspan x="10" y="554">[node test-case 3 of 6 passed] - testCase_buildTest_default</tspan>
<tspan x="10" y="570"></tspan>
<tspan x="10" y="586">browserTest - created electron entry-page /home/travis/build/npmdoc/node-npmdoc-node-red/tmp/ele\</tspan>
<tspan x="10" y="602">ctron.15b3826cfa30.0d56351727f51.html</tspan>
<tspan x="10" y="618"></tspan>
<tspan x="10" y="634">Xlib:  extension "RANDR" missing on display ":99.0".</tspan>
<tspan x="10" y="650">4 Apr 08:48:39 - [info] </tspan>
<tspan x="10" y="666"></tspan>
<tspan x="10" y="682">Welcome to Node-RED</tspan>
<tspan x="10" y="698">===================</tspan>
<tspan x="10" y="714"></tspan>
<tspan x="10" y="730">4 Apr 08:48:39 - [info] Node-RED version: v0.16.2</tspan>
<tspan x="10" y="746">4 Apr 08:48:39 - [info] Node.js  version: v6.10.1</tspan>
<tspan x="10" y="762">4 Apr 08:48:39 - [info] Linux 4.4.0-51-generic x64 LE</tspan>
<tspan x="10" y="778">merging file:///home/travis/build/npmdoc/node-npmdoc-node-red/tmp/build/test-report.json to test\</tspan>
<tspan x="10" y="794">-report</tspan>
<tspan x="10" y="810">Xlib:  extension "RANDR" missing on display ":99.0".</tspan>
<tspan x="10" y="826">[7426:0404/084840:WARNING:audio_manager.cc(314)] Multiple instances of AudioManager detected</tspan>
<tspan x="10" y="842">[7426:0404/084840:WARNING:audio_manager.cc(275)] Multiple instances of AudioManager detected</tspan>
<tspan x="10" y="858">[7475:0404/084840:ERROR:sandbox_linux.cc(343)] InitializeSandbox() called with multiple threads \</tspan>
<tspan x="10" y="874">in process gpu-process. </tspan>
<tspan x="10" y="890">[7426:0404/084840:ERROR:browser_gpu_channel_host_factory.cc(131)] Failed to create channel.</tspan>
<tspan x="10" y="906">&gt; server listening on http-port 49403</tspan>
<tspan x="10" y="922">4 Apr 08:48:40 - [info] Loading palette nodes</tspan>
<tspan x="10" y="938">merging file:///home/travis/build/npmdoc/node-npmdoc-node-red/tmp/build/test-report.json to test\</tspan>
<tspan x="10" y="954">-report</tspan>
<tspan x="10" y="970"></tspan>
<tspan x="10" y="986">browserTest - opened url /home/travis/build/npmdoc/node-npmdoc-node-red/tmp/build/apidoc.html</tspan>
<tspan x="10" y="1002"></tspan>
<tspan x="10" y="1018">Xlib:  extension "RANDR" missing on display ":99.0".</tspan>
<tspan x="10" y="1034">[7441:0404/084840:WARNING:audio_manager.cc(314)] Multiple instances of AudioManager detected</tspan>
<tspan x="10" y="1050">[7441:0404/084840:WARNING:audio_manager.cc(275)] Multiple instances of AudioManager detected</tspan>
<tspan x="10" y="1066">[7517:0404/084840:ERROR:sandbox_linux.cc(343)] InitializeSandbox() called with multiple threads \</tspan>
<tspan x="10" y="1082">in process gpu-process. </tspan>
<tspan x="10" y="1098">[7441:0404/084841:ERROR:browser_gpu_channel_host_factory.cc(131)] Failed to create channel.</tspan>
<tspan x="10" y="1114">4 Apr 08:48:41 - [warn] ------------------------------------------------------</tspan>
<tspan x="10" y="1130">4 Apr 08:48:41 - [warn] [rpi-gpio] Info : Ignoring Raspberry Pi specific node</tspan>
<tspan x="10" y="1146">4 Apr 08:48:41 - [warn] ------------------------------------------------------</tspan>
<tspan x="10" y="1162">4 Apr 08:48:41 - [info] Settings file  : /home/travis/.node-red/settings.js</tspan>
<tspan x="10" y="1178">4 Apr 08:48:41 - [info] User directory : /home/travis/.node-red</tspan>
<tspan x="10" y="1194">4 Apr 08:48:41 - [info] Flows file     : /home/travis/.node-red/flows_testing-gce-88b266bc-a05c-\</tspan>
<tspan x="10" y="1210">477a-a8a7-efb5488238fe.json</tspan>
<tspan x="10" y="1226">4 Apr 08:48:41 - [info] Creating new flow file</tspan>
<tspan x="10" y="1242">4 Apr 08:48:41 - [info] Starting flows</tspan>
<tspan x="10" y="1258">4 Apr 08:48:41 - [info] Started flows</tspan>
<tspan x="10" y="1274">4 Apr 08:48:41 - [warn] Communication server error: Error: listen EADDRINUSE 0.0.0.0:43887</tspan>
<tspan x="10" y="1290">4 Apr 08:48:41 - [error] Unable to listen on http://127.0.0.1:43887/</tspan>
<tspan x="10" y="1306">4 Apr 08:48:41 - [error] Error: port in use</tspan>
<tspan x="10" y="1322"></tspan>
<tspan x="10" y="1338">browserTest - opened url http://127.0.0.1:43887?modeTest=1</tspan>
<tspan x="10" y="1354"></tspan>
<tspan x="10" y="1370">[7441:0404/084842:INFO:CONSOLE(245)] "----------|-----------|-----------|-----------|-----------\</tspan>
<tspan x="10" y="1386">|</tspan>
<tspan x="10" y="1402">File      |   % Stmts |% Branches |   % Funcs |   % Lines |</tspan>
<tspan x="10" y="1418">----------|-----------|-----------|-----------|-----------|</tspan>
<tspan x="10" y="1434">----------|-----------|-----------|-----------|-----------|</tspan>
<tspan x="10" y="1450">All files |       100 |       100 |       100 |       100 |</tspan>
<tspan x="10" y="1466">----------|-----------|-----------|-----------|-----------|</tspan>
<tspan x="10" y="1482">", source: file:///home/travis/build/npmdoc/node-npmdoc-node-red/tmp/electron.15b3826cfa30.0d563\</tspan>
<tspan x="10" y="1498">51727f51.html (245)</tspan>
<tspan x="10" y="1514">[7441:0404/084843:INFO:CONSOLE(245)] "created coverage file:///tmp/build/coverage.html/index.htm\</tspan>
<tspan x="10" y="1530">l", source: file:///home/travis/build/npmdoc/node-npmdoc-node-red/tmp/electron.15b3826cfa30.0d56\</tspan>
<tspan x="10" y="1546">351727f51.html (245)</tspan>
<tspan x="10" y="1562">[node test-case 4 of 6 passed] - testCase_buildApp_default</tspan>
<tspan x="10" y="1578"></tspan>
<tspan x="10" y="1594">browserTest - created screenCapture file:///home/travis/build/npmdoc/node-npmdoc-node-red/tmp/bu\</tspan>
<tspan x="10" y="1610">ild/screenCapture.npmTest.browser._2Fhome_2Ftravis_2Fbuild_2Fnpmdoc_2Fnode-npmdoc-node-red_2Ftmp\</tspan>
<tspan x="10" y="1626">_2Fbuild_2Fapidoc.html.png</tspan>
<tspan x="10" y="1642"></tspan>
<tspan x="10" y="1658">browserTest - created screenCapture file:///home/travis/build/npmdoc/node-npmdoc-node-red/tmp/bu\</tspan>
<tspan x="10" y="1674">ild/screenCapture.npmTest.browser._2Fhome_2Ftravis_2Fbuild_2Fnpmdoc_2Fnode-npmdoc-node-red_2Ftmp\</tspan>
<tspan x="10" y="1690">_2Fbuild_2Fapidoc.html.html</tspan>
<tspan x="10" y="1706"></tspan>
<tspan x="10" y="1722">browserTest - exit-code 0 - /home/travis/build/npmdoc/node-npmdoc-node-red/tmp/build/apidoc.html</tspan>
<tspan x="10" y="1738"></tspan>
<tspan x="10" y="1754">[node test-case 5 of 6 passed] - testCase_buildApidoc_default</tspan>
<tspan x="10" y="1770"></tspan>
<tspan x="10" y="1786">browserTest - created screenCapture file:///home/travis/build/npmdoc/node-npmdoc-node-red/tmp/bu\</tspan>
<tspan x="10" y="1802">ild/screenCapture.npmTest.browser..png</tspan>
<tspan x="10" y="1818"></tspan>
<tspan x="10" y="1834">browserTest - created screenCapture file:///home/travis/build/npmdoc/node-npmdoc-node-red/tmp/bu\</tspan>
<tspan x="10" y="1850">ild/screenCapture.npmTest.browser..html</tspan>
<tspan x="10" y="1866"></tspan>
<tspan x="10" y="1882">browserTest - exit-code 0 - http://127.0.0.1:43887?modeTest=1</tspan>
<tspan x="10" y="1898"></tspan>
<tspan x="10" y="1914"></tspan>
<tspan x="10" y="1930">browserTest - merged coverage from /home/travis/build/npmdoc/node-npmdoc-node-red/tmp/coverage.n\</tspan>
<tspan x="10" y="1946">pmTest.browser.%2F.json</tspan>
<tspan x="10" y="1962"></tspan>
<tspan x="10" y="1978"></tspan>
<tspan x="10" y="1994">browserTest - merging test-report from /home/travis/build/npmdoc/node-npmdoc-node-red/tmp/test-r\</tspan>
<tspan x="10" y="2010">eport.npmTest.browser.%2F.json</tspan>
<tspan x="10" y="2026"></tspan>
<tspan x="10" y="2042">[node test-case 6 of 6 passed] - testCase_webpage_default</tspan>
<tspan x="10" y="2058">-----------------------------|-----------|-----------|-----------|-----------|</tspan>
<tspan x="10" y="2074">File                         |   % Stmts |% Branches |   % Funcs |   % Lines |</tspan>
<tspan x="10" y="2090">-----------------------------|-----------|-----------|-----------|-----------|</tspan>
<tspan x="10" y="2106">   node-npmdoc-node-red/     |       100 |       100 |       100 |       100 |</tspan>
<tspan x="10" y="2122">      example.js             |       100 |       100 |       100 |       100 |</tspan>
<tspan x="10" y="2138">      lib.npmdoc_node_red.js |       100 |       100 |       100 |       100 |</tspan>
<tspan x="10" y="2154">      test.js                |       100 |       100 |       100 |       100 |</tspan>
<tspan x="10" y="2170">-----------------------------|-----------|-----------|-----------|-----------|</tspan>
<tspan x="10" y="2186">All files                    |       100 |       100 |       100 |       100 |</tspan>
<tspan x="10" y="2202">-----------------------------|-----------|-----------|-----------|-----------|</tspan>
<tspan x="10" y="2218"></tspan>
<tspan x="10" y="2234">created coverage file:///home/travis/build/npmdoc/node-npmdoc-node-red/tmp/build/coverage.html/i\</tspan>
<tspan x="10" y="2250">ndex.html</tspan>
<tspan x="10" y="2266">merging file:///home/travis/build/npmdoc/node-npmdoc-node-red/tmp/build/test-report.json to test\</tspan>
<tspan x="10" y="2282">-report</tspan>
<tspan x="10" y="2298"></tspan>
<tspan x="10" y="2314">-------------------------------------------------------</tspan>
<tspan x="10" y="2330">| test-report - buildNpmdoc - node - linux v6.10.1 - 2017-04-04T08:47:51.557Z</tspan>
<tspan x="10" y="2346">|   58753 ms            0 failed        6 passed      |</tspan>
<tspan x="10" y="2362">-------------------------------------------------------</tspan>
<tspan x="10" y="2378"></tspan>
<tspan x="10" y="2394">created test-report file:///home/travis/build/npmdoc/node-npmdoc-node-red/tmp/build/test-report.\</tspan>
<tspan x="10" y="2410">html</tspan>
<tspan x="10" y="2426"></tspan>
<tspan x="10" y="2442"></tspan>
<tspan x="10" y="2458">npmTest - 0 failed tests</tspan>
<tspan x="10" y="2474"></tspan>
<tspan x="10" y="2490"></tspan>
<tspan x="10" y="2506">[MODE_BUILD=npmTest] - 2017-04-04T08:48:53Z - EXIT_CODE - 0</tspan>
</text>
</svg>
